<?xml version="1.0" encoding="UTF-8" standalone="no"?>
<!-- Created with Inkscape (http://www.inkscape.org/) -->

<svg
   width="210mm"
   height="297mm"
   viewBox="0 0 210 297"
   version="1.1"
   id="svg1"
   inkscape:version="1.3.2 (091e20ef0f, 2023-11-25)"
   sodipodi:docname="playbtn.svg"
   xmlns:inkscape="http://www.inkscape.org/namespaces/inkscape"
   xmlns:sodipodi="http://sodipodi.sourceforge.net/DTD/sodipodi-0.dtd"
   xmlns="http://www.w3.org/2000/svg"
   xmlns:svg="http://www.w3.org/2000/svg">
  <sodipodi:namedview
     id="namedview1"
     pagecolor="#505050"
     bordercolor="#eeeeee"
     borderopacity="1"
     inkscape:showpageshadow="0"
     inkscape:pageopacity="0"
     inkscape:pagecheckerboard="0"
     inkscape:deskcolor="#505050"
     inkscape:document-units="mm"
     inkscape:zoom="0.78929574"
     inkscape:cx="366.1492"
     inkscape:cy="549.85727"
     inkscape:window-width="1920"
     inkscape:window-height="1131"
     inkscape:window-x="0"
     inkscape:window-y="0"
     inkscape:window-maximized="1"
     inkscape:current-layer="layer1" />
  <defs
     id="defs1" />
  <g
     inkscape:label="Layer 1"
     inkscape:groupmode="layer"
     id="layer1">
    <path
       id="rect1"
       style="fill:#ffffff;fill-opacity:1;stroke-width:0;stroke-dasharray:none"
       d="m 71.05246,103.98282 c -5.855625,0 -10.569898,4.71376 -10.569898,10.56938 v 67.8956 c 0,5.85562 4.714273,10.56938 10.569898,10.56938 h 67.89508 c 5.85563,0 10.5699,-4.71376 10.5699,-10.56938 v -67.8956 c 0,-5.85562 -4.71427,-10.56938 -10.5699,-10.56938 z m 16.020731,17.26768 c 0.36769,0 0.75356,0.0548 1.15806,0.16485 0.4045,0.11007 0.79089,0.27568 1.15859,0.49661 l 35.963699,22.83633 c 0.6619,0.44131 1.15831,0.99278 1.48931,1.65468 0.3309,0.6619 0.49661,1.36053 0.49661,2.096 0,0.7355 -0.16571,1.43413 -0.49661,2.09599 -0.331,0.6619 -0.82741,1.21338 -1.48931,1.65468 l -35.963699,22.83633 c -0.3677,0.22016 -0.75409,0.38543 -1.15859,0.49661 -0.4045,0.11119 -0.79037,0.16692 -1.15806,0.16692 -1.17673,0 -2.20615,-0.42304 -3.0887,-1.26917 -0.8825,-0.84614 -1.32395,-1.89403 -1.32395,-3.144 v -0.001 -45.67215 c 0,-1.25028 0.44145,-2.29821 1.32395,-3.14399 0.88249,-0.84581 1.91191,-1.26866 3.0887,-1.26866 z" />
  </g>
</svg>
