<?xml version="1.0" encoding="UTF-8" standalone="no"?>
<!-- Created with Inkscape (http://www.inkscape.org/) -->

<svg
   width="210mm"
   height="297mm"
   viewBox="0 0 210 297"
   version="1.1"
   id="svg1"
   inkscape:version="1.3.2 (091e20ef0f, 2023-11-25)"
   sodipodi:docname="btns.svg"
   xmlns:inkscape="http://www.inkscape.org/namespaces/inkscape"
   xmlns:sodipodi="http://sodipodi.sourceforge.net/DTD/sodipodi-0.dtd"
   xmlns="http://www.w3.org/2000/svg"
   xmlns:svg="http://www.w3.org/2000/svg">
  <sodipodi:namedview
     id="namedview1"
     pagecolor="#505050"
     bordercolor="#eeeeee"
     borderopacity="1"
     inkscape:showpageshadow="0"
     inkscape:pageopacity="0"
     inkscape:pagecheckerboard="0"
     inkscape:deskcolor="#505050"
     inkscape:document-units="mm"
     inkscape:zoom="1.719176"
     inkscape:cx="149.49022"
     inkscape:cy="436.83717"
     inkscape:window-width="1920"
     inkscape:window-height="1131"
     inkscape:window-x="0"
     inkscape:window-y="0"
     inkscape:window-maximized="1"
     inkscape:current-layer="layer1"
     inkscape:lockguides="false" />
  <defs
     id="defs1" />
  <g
     inkscape:label="Layer 1"
     inkscape:groupmode="layer"
     id="layer1">
    <rect
       style="fill:#ffffff;fill-opacity:1;stroke-width:0.58354"
       id="rect1"
       width="113.01976"
       height="23.234697"
       x="13.080976"
       y="80.219391"
       ry="11.617349" />
    <rect
       style="fill:#ffffff;fill-opacity:1;stroke-width:0.51356"
       id="rect1-2"
       width="87.537766"
       height="23.234697"
       x="17.782585"
       y="132.21475"
       ry="11.617349" />
    <path
       d="m 28.589752,150.72733 q -0.46542,0 -0.80156,-0.31028 -0.33613,-0.31028 -0.40509,-0.75846 l -0.15514,-1.13771 q -0.22409,-0.0862 -0.42233,-0.20685 -0.19823,-0.12067 -0.38785,-0.25857 l -1.06874,0.44818 q -0.43095,0.18963 -0.8619,0.0344 -0.43095,-0.15514 -0.67228,-0.55161 l -0.81017,-1.4135 q -0.24134,-0.39648 -0.13791,-0.84466 0.10343,-0.44818 0.46542,-0.74122 l 0.91361,-0.68953 q -0.0172,-0.12066 -0.0172,-0.23271 v -0.46542 q 0,-0.11204 0.0172,-0.2327 l -0.91361,-0.68952 q -0.36199,-0.29304 -0.46542,-0.74123 -0.10343,-0.44818 0.13791,-0.84465 l 0.81017,-1.41351 q 0.24133,-0.39647 0.67228,-0.55162 0.43095,-0.15513 0.8619,0.0344 l 1.06874,0.44818 q 0.18962,-0.13791 0.39647,-0.25857 0.20686,-0.12066 0.41371,-0.20686 l 0.15514,-1.1377 q 0.069,-0.44819 0.40509,-0.75846 0.33614,-0.31029 0.80156,-0.31029 h 1.62037 q 0.46542,0 0.801561,0.31029 0.33613,0.31027 0.40509,0.75846 l 0.15514,1.1377 q 0.22408,0.0862 0.42232,0.20686 0.19824,0.12066 0.38786,0.25857 l 1.06874,-0.44818 q 0.43095,-0.18962 0.8619,-0.0344 0.43094,0.15515 0.67227,0.55162 l 0.81018,1.41351 q 0.24133,0.39647 0.13791,0.84465 -0.10344,0.44819 -0.46542,0.74123 l -0.91361,0.68952 q 0.0172,0.12066 0.0172,0.2327 v 0.46542 q 0,0.11205 -0.0345,0.23271 l 0.91361,0.68953 q 0.362,0.29303 0.46542,0.74122 0.10344,0.44818 -0.1379,0.84466 l -0.82742,1.4135 q -0.24132,0.39647 -0.67227,0.55161 -0.43095,0.15515 -0.86189,-0.0344 l -1.03427,-0.44818 q -0.18962,0.1379 -0.39647,0.25857 -0.20686,0.12067 -0.41371,0.20685 l -0.15515,1.13771 q -0.069,0.44818 -0.40509,0.75846 -0.336131,0.31028 -0.801551,0.31028 z m 0.84466,-4.48185 q 0.99979,0 1.706551,-0.70674 0.70675,-0.70676 0.70675,-1.70655 0,-0.99981 -0.70675,-1.70655 -0.706761,-0.70676 -1.706551,-0.70676 -1.01703,0 -1.71517,0.70676 -0.69813,0.70674 -0.69813,1.70655 0,0.99979 0.69813,1.70655 0.69814,0.70674 1.71517,0.70674 z"
       id="path1-6"
       style="stroke-width:0.0172379" />
    <path
       d="m 26.671276,88.15463 q 0,-0.89453 -0.59288,-1.4354 -0.59289,-0.54088 -1.57062,-0.54088 -0.60329,0 -1.09216,0.26004 -0.48887,0.26004 -0.84252,0.7593 -0.33284,0.47846 -0.90492,0.55128 -0.57209,0.0728 -0.98814,-0.30164 -0.29124,-0.27043 -0.32245,-0.66569 -0.0312,-0.39526 0.19763,-0.7489 0.6657,-0.99855 1.69544,-1.54983 1.02974,-0.55128 2.25712,-0.55128 2.01788,0 3.27645,1.14416 1.25858,1.14416 1.25858,2.99562 0,0.93614 -0.39526,1.68504 -0.39525,0.74891 -1.4562,1.76825 -0.76971,0.7281 -1.04015,1.13376 -0.27043,0.40565 -0.35365,0.92573 -0.0832,0.49927 -0.42645,0.83212 -0.34325,0.33285 -0.82172,0.33285 -0.47846,0 -0.82172,-0.32246 -0.34324,-0.32243 -0.34324,-0.80091 0,-0.81131 0.35365,-1.4874 0.35365,-0.6761 1.18577,-1.425 1.06094,-0.93613 1.40419,-1.44581 0.34325,-0.50966 0.34325,-1.11295 z m -2.1635,11.58722 q -0.6865,0 -1.17537,-0.48887 -0.48887,-0.48887 -0.48887,-1.17536 0,-0.6865 0.48887,-1.17537 0.48887,-0.48887 1.17537,-0.48887 0.68649,0 1.17536,0.48887 0.48887,0.48887 0.48887,1.17537 0,0.68649 -0.48887,1.17536 -0.48887,0.48887 -1.17536,0.48887 z"
       id="path1-9"
       style="stroke-width:0.0208028" />
    <text
       xml:space="preserve"
       style="font-size:16.1539px;fill:#000000;fill-opacity:1;stroke-width:1.34616"
       x="35.914253"
       y="97.301208"
       id="text1"><tspan
         sodipodi:role="line"
         id="tspan1"
         style="font-style:normal;font-variant:normal;font-weight:normal;font-stretch:normal;font-family:Roboto;-inkscape-font-specification:Roboto;fill:#000000;fill-opacity:1;stroke-width:1.34616"
         x="35.914253"
         y="97.301208">How to play</tspan></text>
    <text
       xml:space="preserve"
       style="font-size:16.1539px;fill:#000000;fill-opacity:1;stroke-width:1.34616"
       x="41.902855"
       y="149.37386"
       id="text1-3"><tspan
         sodipodi:role="line"
         id="tspan1-7"
         style="font-style:normal;font-variant:normal;font-weight:normal;font-stretch:normal;font-family:Roboto;-inkscape-font-specification:Roboto;fill:#000000;fill-opacity:1;stroke-width:1.34616"
         x="41.902855"
         y="149.37386">Settings</tspan></text>
  </g>
</svg>
